<?xml version="1.0" standalone="no"?>
<!DOCTYPE svg PUBLIC "-//W3C//DTD SVG 20010904//EN"
 "http://www.w3.org/TR/2001/REC-SVG-20010904/DTD/svg10.dtd">
<svg version="1.0" xmlns="http://www.w3.org/2000/svg"
 width="351.000000pt" height="236.000000pt" viewBox="0 0 351.000000 236.000000"
 preserveAspectRatio="xMidYMid meet">

<g transform="translate(0.000000,236.000000) scale(0.100000,-0.100000)"
fill="#000000" stroke="none">
<path d="M22 2350 l-22 -9 0 -1171 0 -1170 1755 0 1755 0 0 1174 0 1174 -22 6
c-37 10 -3441 6 -3466 -4z m1764 -492 c-2 -51 -12 -70 -34 -66 -13 3 -17 15
-18 56 -1 50 0 52 26 52 26 0 28 -2 26 -42z m-38 -81 c8 -6 16 -6 25 0 17 15
95 25 101 14 4 -5 4 -16 0 -24 -4 -11 -16 -13 -50 -9 -36 4 -44 2 -44 -12 0
-9 -8 -16 -20 -16 -12 0 -20 7 -20 16 0 14 -8 16 -44 12 -34 -4 -46 -2 -50 9
-4 8 -4 19 0 24 6 11 84 1 102 -14z m-205 -43 c51 -14 97 -32 104 -40 6 -9 9
-30 6 -47 -4 -24 0 -37 16 -51 12 -11 21 -28 21 -39 0 -19 -3 -18 -30 8 -20
19 -30 39 -30 58 0 42 -15 63 -60 81 -55 22 -60 20 -20 -9 19 -14 31 -25 28
-25 -14 0 -148 83 -148 91 0 6 5 7 10 4 6 -4 52 -18 103 -31z m547 26 c0 -5
-29 -25 -65 -45 -36 -20 -63 -40 -61 -44 3 -4 0 -13 -6 -21 -8 -12 -9 -12 -4
3 3 9 0 17 -6 17 -7 0 3 11 22 25 40 29 35 31 -20 9 -45 -18 -60 -39 -60 -81
0 -19 -10 -39 -30 -58 -27 -26 -30 -27 -30 -8 0 11 9 28 21 39 16 14 20 27 16
51 -3 17 0 38 6 47 7 8 54 27 106 40 51 14 96 28 99 31 8 8 12 6 12 -5z m-614
-50 c8 0 14 -7 14 -15 0 -8 -6 -15 -14 -15 -26 0 -46 12 -46 27 0 10 6 13 16
9 9 -3 22 -6 30 -6z m317 3 c-8 -3 -13 -23 -13 -52 0 -26 6 -53 13 -60 10 -11
10 -14 0 -18 -7 -3 -13 -14 -13 -26 0 -12 -4 -28 -9 -35 -15 -25 -36 18 -34
71 1 33 -2 45 -8 36 -14 -22 -10 -69 8 -100 12 -20 14 -32 7 -39 -16 -16 -44
48 -44 97 0 27 6 46 20 58 22 20 27 61 8 68 -7 3 7 5 32 5 25 0 39 -2 33 -5z
m286 -24 c-22 -14 -49 -11 -49 5 0 9 12 16 28 18 30 3 42 -10 21 -23z m-568
-50 c7 -14 6 -19 -4 -19 -27 0 -77 22 -77 34 0 20 69 7 81 -15z m579 17 c0
-13 -48 -36 -77 -36 -29 0 7 39 40 43 17 2 33 5 35 5 1 1 2 -4 2 -12z m-280
-34 c0 -15 -2 -15 -10 -2 -13 20 -13 33 0 25 6 -3 10 -14 10 -23z m-230 -3 c0
-10 -12 -11 -34 -3 -25 10 -19 22 9 16 14 -2 25 -8 25 -13z m400 1 c-19 -12
-40 -13 -40 -1 0 9 40 20 50 13 2 -2 -2 -7 -10 -12z m-443 -27 c3 -9 -7 -13
-30 -13 -19 0 -37 6 -40 13 -3 8 7 12 31 12 19 0 37 -6 39 -12z m516 0 c-6
-14 -73 -18 -73 -5 0 16 12 20 45 19 21 -1 31 -6 28 -14z m-458 -3 c3 -5 -3
-10 -14 -10 -11 0 -23 5 -26 10 -3 6 3 10 14 10 11 0 23 -4 26 -10z m370 0
c-3 -5 -15 -10 -26 -10 -10 0 -19 5 -19 10 0 6 12 10 26 10 14 0 23 -4 19 -10z
m-345 -31 c0 -5 5 -9 11 -9 6 0 21 -8 34 -18 l23 -18 -29 -27 c-16 -15 -39
-27 -51 -27 -25 0 -21 5 29 36 21 13 32 24 25 24 -7 0 -20 -7 -28 -15 -14 -14
-64 -22 -64 -10 0 3 19 15 43 25 23 11 35 19 27 18 -8 -1 -25 3 -37 10 -14 8
-24 9 -28 2 -8 -13 -85 -13 -85 -1 0 10 30 16 93 18 20 1 37 -2 37 -8z m393 2
c9 -1 17 -5 17 -11 0 -13 -77 -13 -85 0 -4 7 -14 5 -27 -4 -11 -8 -28 -12 -37
-10 -9 3 3 -4 27 -15 50 -24 54 -35 11 -29 l-31 5 23 -18 24 -19 -22 0 c-13 0
-36 12 -52 27 l-29 27 23 18 c13 10 31 18 40 18 9 0 13 5 10 10 -4 7 10 9 42
6 26 -2 56 -5 66 -5z m-207 -35 c-3 -14 -29 -52 -56 -85 -55 -66 -58 -76 -34
-109 19 -27 8 -51 -12 -25 -7 10 -14 39 -14 66 0 44 4 52 55 107 30 33 55 65
55 72 0 6 3 9 6 5 4 -3 4 -17 0 -31z m-206 5 c0 -12 -26 -21 -58 -20 l-27 1
30 13 c35 16 55 19 55 6z m385 -12 c5 -5 1 -9 -12 -9 -29 0 -53 10 -53 22 0
12 50 2 65 -13z m-269 -30 c10 -16 -16 -38 -56 -45 l-34 -7 34 31 c38 35 46
37 56 21z m144 -19 c38 -34 22 -42 -30 -15 -30 15 -36 26 -23 38 10 11 16 8
53 -23z m-41 -36 c33 -42 28 -87 -16 -130 -35 -36 -36 -37 -34 -110 2 -61 0
-74 -13 -74 -12 0 -16 11 -16 51 0 28 5 59 10 70 18 33 -6 21 -49 -26 -46 -50
-47 -53 -27 -81 12 -15 27 -19 76 -19 55 0 64 3 86 28 32 37 30 59 -8 103
l-33 37 32 -16 c75 -39 95 -112 44 -169 -24 -28 -36 -32 -90 -36 -97 -7 -161
33 -161 102 0 43 22 71 89 113 102 65 122 99 86 147 -14 19 -15 19 -15 -8 0
-15 -3 -25 -8 -22 -4 2 -6 -13 -4 -35 3 -31 1 -39 -12 -39 -25 0 -22 80 5 114
11 14 24 26 29 26 5 0 18 -12 29 -26z m-47 -434 c-4 -39 -22 -57 -22 -22 0 9
-3 27 -6 40 -5 17 -2 22 13 22 16 0 18 -6 15 -40z m-778 -302 c10 -79 20 -158
23 -175 5 -30 3 -33 -20 -33 -28 0 -30 6 -42 108 -4 28 -10 50 -14 48 -4 -3
-8 40 -8 95 0 95 1 99 22 99 21 0 23 -8 39 -142z m266 113 c0 -28 -3 -30 -42
-33 -40 -3 -43 -5 -46 -35 -3 -30 -1 -33 25 -34 15 -1 36 -1 46 0 13 2 17 -5
17 -28 0 -28 -3 -30 -42 -33 l-43 -3 -3 -47 -3 -48 45 0 c44 0 46 -1 46 -30
l0 -30 -75 0 -75 0 0 168 c0 93 3 172 7 175 3 4 37 7 75 7 l68 0 0 -29z m237
9 c83 -50 97 -212 25 -290 -20 -22 -42 -33 -84 -41 -91 -18 -88 -25 -88 176
l0 175 58 0 c39 0 67 -6 89 -20z m218 -160 l0 -175 -32 -3 -33 -3 0 181 0 181
33 -3 32 -3 0 -175z m275 150 c0 -27 -3 -30 -31 -30 -17 0 -39 -5 -50 -10 -51
-28 -65 -133 -26 -191 19 -28 30 -35 65 -37 40 -3 42 -5 42 -34 l0 -31 -49 5
c-94 9 -141 68 -141 175 0 108 60 182 148 183 40 0 42 -1 42 -30z m225 8 c18
-79 57 -269 62 -300 5 -36 4 -38 -20 -38 -20 0 -28 6 -33 25 -5 21 -12 25 -44
25 -32 0 -39 -4 -42 -22 -2 -18 -11 -24 -37 -26 -32 -3 -33 -2 -26 25 4 15 20
89 36 163 40 180 36 170 69 170 23 0 31 -5 35 -22z m268 11 c32 -14 47 -42 53
-97 7 -66 -20 -109 -76 -118 l-40 -7 0 -63 c0 -62 -1 -64 -25 -64 l-25 0 0
180 0 180 45 0 c24 0 55 -5 68 -11z"/>
<path d="M1850 1516 c0 -2 7 -6 15 -10 8 -3 15 -1 15 4 0 6 -7 10 -15 10 -8 0
-15 -2 -15 -4z"/>
<path d="M1870 1156 c0 -8 -14 -26 -31 -40 -17 -14 -26 -26 -21 -26 16 0 62
48 62 65 0 8 -2 15 -5 15 -3 0 -5 -6 -5 -14z"/>
<path d="M1410 660 c0 -132 5 -141 56 -97 45 39 47 154 4 197 -11 11 -29 20
-40 20 -19 0 -20 -7 -20 -120z"/>
<path d="M2166 639 c-9 -46 -8 -49 15 -49 17 0 20 4 15 23 -3 12 -6 30 -6 40
0 29 -17 19 -24 -14z"/>
<path d="M2425 777 c-10 -24 -1 -120 11 -124 7 -2 19 4 28 13 25 24 18 92 -11
111 -20 14 -23 14 -28 0z"/>
</g>
</svg>
